<svg width="115" height="48" viewBox="0 0 115 48" fill="none" xmlns="http://www.w3.org/2000/svg">
<path d="M41.295 34.775H36.03V36.875H38.835C38.46 37.88 37.545 38.495 36.15 38.495C34.11 38.495 32.85 37.19 32.85 35.405C32.85 33.56 34.17 32.255 35.94 32.255C37.125 32.255 38.07 32.795 38.505 33.485L40.545 32.315C39.66 30.905 37.965 29.915 35.955 29.915C32.865 29.915 30.45 32.345 30.45 35.39C30.45 38.405 32.82 40.835 36.12 40.835C39.06 40.835 41.295 38.885 41.295 35.675V34.775ZM44.583 37.775H49.908C49.968 37.49 49.998 37.19 49.998 36.875C49.998 34.61 48.378 32.915 46.188 32.915C43.818 32.915 42.198 34.64 42.198 36.875C42.198 39.11 43.788 40.835 46.353 40.835C47.778 40.835 48.888 40.31 49.623 39.29L47.823 38.255C47.523 38.585 46.998 38.825 46.383 38.825C45.558 38.825 44.868 38.555 44.583 37.775ZM44.538 36.095C44.748 35.33 45.318 34.91 46.173 34.91C46.848 34.91 47.523 35.225 47.763 36.095H44.538ZM55.4495 35.285V33.125H53.9045V31.025L51.6545 31.7V33.125H50.4545V35.285H51.6545V37.94C51.6545 40.04 52.5095 40.925 55.4495 40.625V38.585C54.4595 38.645 53.9045 38.585 53.9045 37.94V35.285H55.4495ZM61.7449 32.465C62.4799 32.465 63.0949 31.85 63.0949 31.115C63.0949 30.38 62.4799 29.765 61.7449 29.765C61.0099 29.765 60.3949 30.38 60.3949 31.115C60.3949 31.85 61.0099 32.465 61.7449 32.465ZM60.6199 40.625H62.8699V33.125H60.6199V40.625ZM68.9114 35.285V33.125H67.3664V31.025L65.1164 31.7V33.125H63.9164V35.285H65.1164V37.94C65.1164 40.04 65.9714 40.925 68.9114 40.625V38.585C67.9214 38.645 67.3664 38.585 67.3664 37.94V35.285H68.9114ZM79.5268 30.125V33.83C79.0318 33.26 78.2968 32.915 77.2918 32.915C75.3268 32.915 73.7068 34.64 73.7068 36.875C73.7068 39.11 75.3268 40.835 77.2918 40.835C78.2968 40.835 79.0318 40.49 79.5268 39.92V40.625H81.7768V30.125H79.5268ZM77.7418 38.705C76.7068 38.705 75.9568 38 75.9568 36.875C75.9568 35.75 76.7068 35.045 77.7418 35.045C78.7768 35.045 79.5268 35.75 79.5268 36.875C79.5268 38 78.7768 38.705 77.7418 38.705ZM87.0275 40.835C89.2325 40.835 91.0025 39.11 91.0025 36.875C91.0025 34.64 89.2325 32.915 87.0275 32.915C84.8225 32.915 83.0525 34.64 83.0525 36.875C83.0525 39.11 84.8225 40.835 87.0275 40.835ZM87.0275 38.645C86.0525 38.645 85.3025 37.94 85.3025 36.875C85.3025 35.81 86.0525 35.105 87.0275 35.105C88.0025 35.105 88.7525 35.81 88.7525 36.875C88.7525 37.94 88.0025 38.645 87.0275 38.645ZM96.6702 32.915C95.6802 32.915 94.9302 33.275 94.5252 33.83V33.125H92.2752V40.625H94.5252V36.53C94.5252 35.465 95.0952 34.985 95.9202 34.985C96.6402 34.985 97.2252 35.42 97.2252 36.35V40.625H99.4752V36.02C99.4752 33.995 98.1852 32.915 96.6702 32.915ZM103.03 37.775H108.355C108.415 37.49 108.445 37.19 108.445 36.875C108.445 34.61 106.825 32.915 104.635 32.915C102.265 32.915 100.645 34.64 100.645 36.875C100.645 39.11 102.235 40.835 104.8 40.835C106.225 40.835 107.335 40.31 108.07 39.29L106.27 38.255C105.97 38.585 105.445 38.825 104.83 38.825C104.005 38.825 103.315 38.555 103.03 37.775ZM102.985 36.095C103.195 35.33 103.765 34.91 104.62 34.91C105.295 34.91 105.97 35.225 106.21 36.095H102.985ZM110.096 36.875H111.896L112.346 33.125V30.125H109.646V33.125L110.096 36.875ZM110.996 40.835C111.776 40.835 112.421 40.19 112.421 39.41C112.421 38.63 111.776 37.985 110.996 37.985C110.216 37.985 109.571 38.63 109.571 39.41C109.571 40.19 110.216 40.835 110.996 40.835Z" fill="#EACBE0"/>
<path d="M15.7645 0.481323C13.1607 0.484275 10.5982 1.13126 8.30619 2.36441C6.01422 3.59756 4.06427 5.37841 2.63075 7.54769C1.19723 9.71696 0.324851 12.207 0.0916392 14.7951C-0.141572 17.3832 0.271659 19.9886 1.29437 22.3783L11.9655 46.2533C13.0611 48 14.3267 47.8762 15.5647 47.9725L15.9023 48V31.9068C24.5844 31.9068 31.5209 24.8584 31.5209 16.194C31.516 12.0263 29.8541 8.03077 26.8999 5.08479C23.9457 2.1388 19.9408 0.483142 15.7645 0.481323ZM15.7645 23.5243C14.3108 23.5243 12.8898 23.0942 11.6811 22.2882C10.4724 21.4822 9.53038 20.3367 8.97408 18.9964C8.41778 17.6561 8.27223 16.1813 8.55583 14.7585C8.83943 13.3357 9.53944 12.0287 10.5673 11.0029C11.5952 9.9771 12.9049 9.27852 14.3306 8.9955C15.7564 8.71248 17.2342 8.85774 18.5772 9.4129C19.9202 9.96806 21.0681 10.9082 21.8758 12.1144C22.6834 13.3206 23.1144 14.7388 23.1144 16.1895C23.1114 18.1339 22.3361 19.9978 20.9583 21.3727C19.5806 22.7476 17.7129 23.5213 15.7645 23.5243Z" fill="url(#paint0_linear)"/>
<path d="M46.94 14.899C46.94 16.3682 46.5748 17.512 45.8582 18.3005C45.5176 18.6791 45.0975 18.9781 44.6278 19.1762C44.1582 19.3743 43.6505 19.4666 43.1411 19.4466C42.0179 19.4466 41.2324 19.1303 40.734 18.4793C40.1965 17.7917 39.9255 16.7212 39.9255 15.3253V4.85474H33.8457V15.7723C33.8457 18.6604 34.5348 20.9044 35.8853 22.4401C37.2359 23.9759 39.1974 24.7942 41.6412 24.7942C43.0802 24.8251 44.5003 24.4628 45.748 23.7467C46.4524 23.3318 47.0802 22.7991 47.6038 22.172C47.9629 22.8323 48.4938 23.3837 49.1405 23.7681C49.7873 24.1526 50.526 24.3558 51.2788 24.3564H53.0175V4.85474H46.94V14.899Z" fill="url(#paint1_linear)"/>
<path d="M67.7559 4.41694C66.3153 4.38535 64.8936 4.7476 63.6445 5.46446C63.0562 5.81294 62.5204 6.24279 62.0528 6.74119L61.8231 4.85474H56.375V18.9859C56.3768 20.4097 56.9444 21.7746 57.9532 22.7814C58.9621 23.7882 60.3298 24.3546 61.7565 24.3564H62.4571V14.3145C62.4571 12.8452 62.82 11.7014 63.5366 10.9129C63.8779 10.5345 64.2984 10.2357 64.7684 10.0376C65.2384 9.83953 65.7463 9.74709 66.256 9.76683C67.3769 9.76683 68.1624 10.0831 68.6631 10.7341C69.1983 11.4218 69.4693 12.4945 69.4693 13.8858V24.3679H75.5514V13.4366C75.5514 10.5507 74.8623 8.30673 73.5118 6.77098C72.1612 5.23524 70.1974 4.41694 67.7559 4.41694Z" fill="url(#paint2_linear)"/>
<path d="M86.4866 0H81.0293L80.4803 4.85478H77.2969V10.1565H80.4114V17.3424C80.4114 19.9142 81.0775 21.7548 82.3913 22.8138C83.6591 23.8361 85.345 24.3564 87.403 24.3564H87.8096C88.7308 24.3552 89.614 23.9894 90.2655 23.3393C90.917 22.6892 91.2835 21.8078 91.2847 20.8884V18.9813H88.3103C87.3295 18.9813 86.9505 18.7796 86.8127 18.6604C86.6749 18.5412 86.4866 18.2478 86.4866 17.3791V10.1565H91.388V4.85478H86.4866V0Z" fill="url(#paint3_linear)"/>
<path d="M108.273 4.85472L108.117 6.37213C107.623 5.92779 107.07 5.55298 106.474 5.25814C105.257 4.6769 103.919 4.38878 102.57 4.41692C100.835 4.39188 99.1267 4.85072 97.6385 5.74178C96.1917 6.62122 95.0069 7.87084 94.207 9.36109C93.3533 10.9629 92.921 12.7548 92.9506 14.5689C92.9217 16.3877 93.353 18.1844 94.2047 19.7927C95.0023 21.2965 96.1857 22.5621 97.6339 23.4601C99.1207 24.3644 100.833 24.8309 102.574 24.8056C104.237 24.8056 105.625 24.4618 106.697 23.7856C107.299 23.4064 107.859 22.9629 108.365 22.463C108.676 23.0366 109.136 23.5155 109.697 23.8492C110.258 24.183 110.9 24.359 111.553 24.3587H114.029V4.85472H108.273ZM108.023 14.6055C108.023 16.0152 107.611 17.1269 106.768 18.0117C105.926 18.8965 104.887 19.309 103.564 19.309C102.97 19.3288 102.378 19.2216 101.828 18.9947C101.278 18.7678 100.783 18.4264 100.376 17.9933C99.5219 17.0971 99.1062 15.9785 99.1062 14.5689C99.1062 13.1592 99.5196 12.0475 100.369 11.1879C100.782 10.7621 101.28 10.4275 101.83 10.206C102.38 9.98445 102.971 9.8809 103.564 9.90204C104.887 9.90204 105.935 10.3261 106.768 11.1994C107.602 12.0727 108.023 13.1982 108.023 14.6055Z" fill="url(#paint4_linear)"/>
<defs>
<linearGradient id="paint0_linear" x1="-13.123" y1="24.3335" x2="109.977" y2="23.9376" gradientUnits="userSpaceOnUse">
<stop offset="0.19" stop-color="#8F5096"/>
<stop offset="1" stop-color="#514487"/>
</linearGradient>
<linearGradient id="paint1_linear" x1="315.479" y1="600.102" x2="10403" y2="2384.69" gradientUnits="userSpaceOnUse">
<stop offset="0.19" stop-color="#8F5096"/>
<stop offset="1" stop-color="#514487"/>
</linearGradient>
<linearGradient id="paint2_linear" x1="394.071" y1="283.156" x2="10484.4" y2="2067.6" gradientUnits="userSpaceOnUse">
<stop offset="0.19" stop-color="#8F5096"/>
<stop offset="1" stop-color="#514487"/>
</linearGradient>
<linearGradient id="paint3_linear" x1="392.798" y1="-292.034" x2="7953.43" y2="512.854" gradientUnits="userSpaceOnUse">
<stop offset="0.19" stop-color="#8F5096"/>
<stop offset="1" stop-color="#514487"/>
</linearGradient>
<linearGradient id="paint4_linear" x1="585.79" y1="-350.194" x2="11625" y2="1749.65" gradientUnits="userSpaceOnUse">
<stop offset="0.19" stop-color="#8F5096"/>
<stop offset="1" stop-color="#514487"/>
</linearGradient>
</defs>
</svg>
